<?xml version="1.0" encoding="iso-8859-1"?>
<!-- Generator: Adobe Illustrator 19.0.0, SVG Export Plug-In . SVG Version: 6.00 Build 0)  -->
<svg version="1.1" id="Layer_1" xmlns="http://www.w3.org/2000/svg" xmlns:xlink="http://www.w3.org/1999/xlink" x="0px" y="0px"
	 viewBox="0 0 511.984 511.984" style="enable-background:new 0 0 511.984 511.984;" xml:space="preserve">
<g>
	<path style="fill:#CCD1D9;" d="M138.66,479.98h-21.327c-5.891,0-10.672,4.781-10.672,10.656c0,5.906,4.781,10.688,10.672,10.688
		h21.327c5.891,0,10.672-4.781,10.672-10.688C149.332,484.762,144.551,479.98,138.66,479.98z"/>
	<path style="fill:#CCD1D9;" d="M181.33,437.327H95.998c-5.891,0-10.664,4.749-10.664,10.655c0,5.874,4.773,10.655,10.664,10.655
		h85.332c5.891,0,10.664-4.781,10.664-10.655C191.994,442.076,187.221,437.327,181.33,437.327z"/>
	<path style="fill:#CCD1D9;" d="M170.659,405.327c0-5.906-4.773-10.688-10.664-10.688H95.998c-5.891,0-10.664,4.781-10.664,10.688
		c0,5.875,4.773,10.656,10.664,10.656h63.997C165.886,415.983,170.659,411.202,170.659,405.327z"/>
</g>
<g>
	<path style="fill:#AAB2BC;" d="M223.993,351.985H74.662c-5.891,0-10.664,4.781-10.664,10.655c0,5.906,4.773,10.688,10.664,10.688
		h149.331c5.891,0,10.664-4.781,10.664-10.688C234.657,356.766,229.884,351.985,223.993,351.985z"/>
	<path style="fill:#AAB2BC;" d="M266.656,309.33H95.998c-5.891,0-10.664,4.75-10.664,10.656c0,5.874,4.773,10.655,10.664,10.655
		h170.658c5.898,0,10.68-4.781,10.68-10.655C277.336,314.08,272.555,309.33,266.656,309.33z"/>
	<path style="fill:#AAB2BC;" d="M309.335,266.652H138.66c-5.891,0-10.664,4.781-10.664,10.679c0,5.875,4.773,10.656,10.664,10.656
		h170.675c5.875,0,10.656-4.781,10.656-10.656C319.991,271.433,315.21,266.652,309.335,266.652z"/>
</g>
<g>
	<path style="fill:#656D78;" d="M373.332,223.981H74.662c-5.891,0-10.664,4.781-10.664,10.671s4.773,10.671,10.664,10.671h298.67
		c5.875,0,10.656-4.781,10.656-10.671C383.988,228.762,379.207,223.981,373.332,223.981z"/>
	<path style="fill:#656D78;" d="M32,202.654h298.646c5.906,0,10.687-4.781,10.687-10.671s-4.78-10.656-10.687-10.656H32
		c-5.891,0-10.664,4.766-10.664,10.656S26.109,202.654,32,202.654z"/>
	<path style="fill:#656D78;" d="M373.332,138.656H74.662c-5.891,0-10.664,4.766-10.664,10.671c0,5.891,4.773,10.656,10.664,10.656
		h298.67c5.875,0,10.656-4.765,10.656-10.656C383.988,143.422,379.207,138.656,373.332,138.656z"/>
</g>
<g>
	<path style="fill:#434A54;" d="M437.331,117.328c5.874,0,10.654-4.781,10.654-10.671c0-5.891-4.78-10.672-10.654-10.672H95.998
		c-5.891,0-10.664,4.781-10.664,10.672c0,5.89,4.773,10.671,10.664,10.671H437.331z"/>
	<path style="fill:#434A54;" d="M330.646,53.33H53.335c-5.891,0-10.672,4.766-10.672,10.656s4.781,10.671,10.672,10.671h277.312
		c5.906,0,10.687-4.781,10.687-10.671C341.333,58.096,336.553,53.33,330.646,53.33z"/>
	<path style="fill:#434A54;" d="M501.328,10.66H10.664C4.773,10.66,0,15.441,0,21.332s4.773,10.655,10.664,10.655h490.664
		c5.875,0,10.656-4.765,10.656-10.655S507.203,10.66,501.328,10.66z"/>
</g>
<g>
</g>
<g>
</g>
<g>
</g>
<g>
</g>
<g>
</g>
<g>
</g>
<g>
</g>
<g>
</g>
<g>
</g>
<g>
</g>
<g>
</g>
<g>
</g>
<g>
</g>
<g>
</g>
<g>
</g>
</svg>
